<svg width="360" height="730" version="1.1" viewBox="0 0 95.25 193.15" xml:space="preserve" xmlns="http://www.w3.org/2000/svg" xmlns:xlink="http://www.w3.org/1999/xlink"><defs><linearGradient id="linearGradient26792"><stop stop-color="#8e7f93" offset="0"/><stop stop-color="#544b58" offset="1"/></linearGradient><linearGradient id="linearGradient21239"><stop stop-color="#d9d7de" offset="0"/><stop stop-color="#43384a" offset=".08"/><stop stop-color="#7b6e81" offset=".14"/><stop stop-color="#7b6e81" offset=".86"/><stop stop-color="#5f5365" offset=".92827"/><stop stop-color="#b0a8b6" offset="1"/></linearGradient><linearGradient id="linearGradient21241" x1="2.5681" x2="2.5681" y1="51.357" y2="65.712" gradientUnits="userSpaceOnUse" xlink:href="#linearGradient21239"/><linearGradient id="linearGradient21285" x1="2.1586" x2="2.1586" y1="37.49" y2="44.488" gradientUnits="userSpaceOnUse" xlink:href="#linearGradient21239"/><linearGradient id="linearGradient21293" x1="95.039" x2="95.039" y1="61.462" y2="84.161" gradientUnits="userSpaceOnUse" xlink:href="#linearGradient21239"/><linearGradient id="linearGradient21301" x1="3.0371" x2="3.0371" y1="70.032" y2="84.387" gradientUnits="userSpaceOnUse" xlink:href="#linearGradient21239"/><filter id="filter16183" x="-.0046203" y="-.0022211" width="1.0092" height="1.0044" color-interpolation-filters="sRGB"><feGaussianBlur stdDeviation="0.17728813"/></filter><filter id="filter16275" x="-.0046558" y="-.002213" width="1.0093" height="1.0044" color-interpolation-filters="sRGB"><feGaussianBlur stdDeviation="0.17551579"/></filter><filter id="filter5343" x="-.19228" y="-.082464" width="1.3846" height="1.1649" color-interpolation-filters="sRGB"><feGaussianBlur stdDeviation="0.030983682"/></filter><filter id="filter5347" x="-.10878" y="-.082314" width="1.2176" height="1.1646" color-interpolation-filters="sRGB"><feGaussianBlur stdDeviation="0.030983682"/></filter><linearGradient id="linearGradient26130" x1="39.383" x2="39.383" y1="1.3979" y2="2.096" gradientUnits="userSpaceOnUse"><stop offset="0"/><stop stop-color="#212121" offset="1"/></linearGradient><linearGradient id="linearGradient26794" x1="73.446" x2="73.446" y1=".26458" y2="1.3979" gradientUnits="userSpaceOnUse" xlink:href="#linearGradient26792"/><linearGradient id="linearGradient30502" x1="73.446" x2="73.446" y1=".26458" y2="1.3979" gradientTransform="matrix(1 0 0 1.2402 -52.948 -94.596)" gradientUnits="userSpaceOnUse" xlink:href="#linearGradient26792"/><linearGradient id="linearGradient30538" x1="73.446" x2="73.446" y1=".26458" y2="1.3979" gradientTransform="matrix(1 0 0 1.2402 -52.948 .65366)" gradientUnits="userSpaceOnUse" xlink:href="#linearGradient26792"/><linearGradient id="linearGradient30612" x1="73.446" x2="73.446" y1=".26458" y2="1.3979" gradientTransform="translate(-95.25 -193.15)" gradientUnits="userSpaceOnUse" xlink:href="#linearGradient26792"/><linearGradient id="linearGradient30614" x1="73.446" x2="73.446" y1=".26458" y2="1.3979" gradientTransform="matrix(1 0 0 1.2402 -246.09 .65366)" gradientUnits="userSpaceOnUse" xlink:href="#linearGradient26792"/><linearGradient id="linearGradient30616" x1="73.446" x2="73.446" y1=".26458" y2="1.3979" gradientTransform="matrix(1 0 0 1.2402 -246.09 -94.596)" gradientUnits="userSpaceOnUse" xlink:href="#linearGradient26792"/></defs><g fill="#fff" stroke-width=".26459"><rect transform="rotate(-40.136)" x="63.486" y="56.15" width="4.9251" height="12.634"/><rect transform="rotate(224.26)" x="-10.358" y="-5.8195" width="4.9251" height="12.634"/><rect transform="rotate(131.75)" x="134.57" y="-136.25" width="4.9251" height="12.634"/><rect transform="rotate(44.457)" x="192.91" y="65.186" width="4.9251" height="12.634"/></g><g transform="translate(-.51705)"><path d="m0.73818 37.289h1.4079c0.12251 0 0.22113 0.09862 0.22113 0.22113v6.9586c0 0.12251-0.098624 0.22113-0.22113 0.22113h-1.4079c-0.12251 0-0.22113-0.09862-0.22113-0.22113v-6.9586c0-0.12251 0.098624-0.22113 0.22113-0.22113z" fill="#443c46" stop-color="#000000" stroke-width=".27163"/><path d="m0.72566 37.49h1.433c0.11557 0 0.20861 0.09325 0.20861 0.2091v6.5799c0 0.11584-0.093041 0.2091-0.20861 0.2091h-1.433c-0.11557 0-0.20861-0.09325-0.20861-0.2091v-6.5799c0-0.11584 0.093041-0.2091 0.20861-0.2091z" fill="url(#linearGradient21285)" stop-color="#000000" stroke-width=".26414"/></g><g transform="translate(-.92647)"><path d="m1.1476 51.156h1.4079c0.12251 0 0.22113 0.09862 0.22113 0.22113v14.315c0 0.12251-0.098624 0.22113-0.22113 0.22113h-1.4079c-0.12251 0-0.22113-0.09862-0.22113-0.22113v-14.315c0-0.12251 0.098624-0.22113 0.22113-0.22113z" fill="#443c46" stop-color="#000000" stroke-width=".27163"/><path d="m1.1351 51.357h1.433c0.11557 0 0.20861 0.09325 0.20861 0.2091v13.937c0 0.11584-0.093041 0.2091-0.20861 0.2091h-1.433c-0.11557 0-0.20861-0.09325-0.20861-0.2091v-13.937c0-0.11584 0.093041-0.2091 0.20861-0.2091z" fill="url(#linearGradient21241)" stop-color="#000000" stroke-width=".26414"/></g><g transform="translate(-1.3955)"><path d="m1.6167 69.83h1.4079c0.12251 0 0.22113 0.09862 0.22113 0.22113v14.315c0 0.12251-0.098624 0.22113-0.22113 0.22113h-1.4079c-0.12251 0-0.22113-0.09862-0.22113-0.22113v-14.315c0-0.12251 0.098624-0.22113 0.22113-0.22113z" fill="#443c46" stop-color="#000000" stroke-width=".27163"/><path d="m1.6041 70.032h1.433c0.11557 0 0.20861 0.09325 0.20861 0.2091v13.937c0 0.11584-0.093041 0.2091-0.20861 0.2091h-1.433c-0.11557 0-0.20861-0.09325-0.20861-0.2091v-13.937c0-0.11584 0.093041-0.2091 0.20861-0.2091z" fill="url(#linearGradient21301)" stop-color="#000000" stroke-width=".26414"/></g><g transform="translate(.0028061)"><path d="m95.026 61.261h-1.4079c-0.12251 0-0.22113 0.09862-0.22113 0.22113v22.66c0 0.12251 0.09862 0.22113 0.22113 0.22113h1.4079c0.12251 0 0.22113-0.09862 0.22113-0.22113v-22.66c0-0.12251-0.09862-0.22113-0.22113-0.22113z" fill="#443c46" stop-color="#000000" stroke-width=".27163"/><path d="m95.039 61.462h-1.433c-0.11557 0-0.20861 0.09325-0.20861 0.2091v22.281c0 0.11584 0.09304 0.2091 0.20861 0.2091h1.433c0.11557 0 0.20861-0.09325 0.20861-0.2091v-22.281c0-0.11584-0.09304-0.2091-0.20861-0.2091z" fill="url(#linearGradient21293)" stop-color="#000000" stroke-width=".26414"/></g><g transform="translate(-306.69 72.478)"><g transform="translate(151.34 -72.478)"><path d="m172.53 0.26458c-8.972 0-16.195 7.2228-16.195 16.195v160.23c0 8.9721 7.2228 16.195 16.195 16.195h60.897c8.9721 0 16.195-7.2228 16.195-16.195v-160.23c0-8.9721-7.2228-16.195-16.195-16.195zm-1.7074 2.9104h63.782c6.5178 0 11.765 5.1818 11.765 11.618v163.35c0 6.4366-5.2474 11.618-11.765 11.618h-63.782c-6.5179 0-11.765-5.1818-11.765-11.618v-163.35c0-6.4366 5.2473-11.618 11.765-11.618z" fill="#e8e4ea" stop-color="#000000" stroke="#443c46" stroke-width=".52917" style="paint-order:stroke fill markers"/><g stroke-width=".26458"><path d="m172.9 0.78858c-8.8498 0-15.974 7.125-15.974 15.975v159.62c0 8.8498 7.1244 15.975 15.974 15.975h60.144c8.8498 0 15.974-7.125 15.974-15.975v-159.62c0-8.8498-7.1245-15.975-15.974-15.975zm-1.0645 3.5471h62.273c6.3636 0 11.487 5.1226 11.487 11.486v161.5c0 6.3636-5.1231 11.486-11.487 11.486h-62.273c-6.3636 0-11.487-5.1226-11.487-11.486v-161.5c0-6.3636 5.1231-11.486 11.487-11.486z" fill="#49454b" filter="url(#filter16183)" stop-color="#000000"/><path d="m172.9 0.78858c-8.8498 0-15.974 7.125-15.974 15.975v159.62c0 8.8498 7.1244 15.975 15.974 15.975h60.144c8.8498 0 15.974-7.125 15.974-15.975v-159.62c0-8.8498-7.1245-15.975-15.974-15.975zm-1.0645 3.5471h62.273c6.3636 0 11.487 5.1226 11.487 11.486v161.5c0 6.3636-5.1231 11.486-11.487 11.486h-62.273c-6.3636 0-11.487-5.1226-11.487-11.486v-161.5c0-6.3636 5.1231-11.486 11.487-11.486z" fill="#7b6e81" stop-color="#000000"/><path d="m172.8 1.3978c-8.3454 0-15.064 6.7188-15.064 15.064v160.22c0 8.3454 6.7183 15.064 15.064 15.064h60.348c8.3454 0 15.064-6.7188 15.064-15.064v-160.22c0-8.3454-6.7183-15.064-15.064-15.064zm-0.96273 2.9378h62.273c6.3636 0 11.487 5.1226 11.487 11.486v161.5c0 6.3636-5.1231 11.486-11.487 11.486h-62.273c-6.3636 0-11.487-5.1226-11.487-11.486v-161.5c0-6.3636 5.1231-11.486 11.487-11.486z" filter="url(#filter16275)" stop-color="#000000"/><path d="m172.8 1.3978c-8.3454 0-15.064 6.7188-15.064 15.064v160.22c0 8.3454 6.7183 15.064 15.064 15.064h60.348c8.3454 0 15.064-6.7188 15.064-15.064v-160.22c0-8.3454-6.7183-15.064-15.064-15.064zm-0.96273 2.9378h62.273c6.3636 0 11.487 5.1226 11.487 11.486v161.5c0 6.3636-5.1231 11.486-11.487 11.486h-62.273c-6.3636 0-11.487-5.1226-11.487-11.486v-161.5c0-6.3636 5.1231-11.486 11.487-11.486z" stop-color="#000000"/></g></g><path d="m323.18-68.142h62.274c6.3636 0 11.487 5.123 11.487 11.487v161.5c0 6.3636-5.123 11.487-11.487 11.487h-62.274c-6.3637 0-11.487-5.123-11.487-11.487v-161.5c0-6.3636 5.123-11.487 11.487-11.487z" display="none" fill="#292929" stop-color="#000000" stroke-width="3.1855"/></g><rect x="73.446" y=".26458" width="1.2591" height="1.1333" fill="url(#linearGradient26794)" stop-color="#000000" style="paint-order:normal"/><rect transform="rotate(90)" x="20.498" y="-94.268" width="1.2591" height="1.4056" fill="url(#linearGradient30502)" stop-color="#000000" style="paint-order:normal"/><rect transform="matrix(0,1,1,0,0,0)" x="20.498" y=".98182" width="1.2591" height="1.4056" fill="url(#linearGradient30538)" stop-color="#000000" style="paint-order:normal"/><rect transform="scale(-1)" x="-21.804" y="-192.88" width="1.2591" height="1.1333" fill="url(#linearGradient30612)" stop-color="#000000" style="paint-order:normal"/><rect transform="rotate(-90)" x="-172.65" y=".98182" width="1.2591" height="1.4056" fill="url(#linearGradient30614)" stop-color="#000000" style="paint-order:normal"/><rect transform="matrix(0,-1,-1,0,0,0)" x="-172.65" y="-94.268" width="1.2591" height="1.4056" fill="url(#linearGradient30616)" stop-color="#000000" style="paint-order:normal"/><path d="m37.36 1.3979c1.0513 0 1.0241 0.21642 1.2418 0.46199 0.15876 0.17911 0.36327 0.23616 0.76584 0.23616h16.514c0.40258 0 0.60657-0.057054 0.76533-0.23616 0.21767-0.24557 0.19099-0.46199 1.2423-0.46199z" fill="url(#linearGradient26130)"/><rect x="34.026" y="6.7034" width="27.198" height="8.1" ry="4.05" stop-color="#000000" style="paint-order:normal"/><g transform="matrix(1.2258 0 0 1.2258 -12.779 -6.1319)"><circle cx="57.213" cy="13.775" r="1.3122" color="#000000" fill="#0a0a0a"/><circle cx="57.213" cy="13.775" r=".80935" color="#000000" fill="#0a0d13"/><circle cx="57.213" cy="13.775" r=".61666" color="#000000" fill="#091427"/><path transform="matrix(.75119 0 0 .75119 92.191 9.2835)" d="m-47.128 5.4302c-0.09735 0.010246-0.23568 0.15883-0.24593 0.45087-0.01024 0.29204 0.11784 0.45087 0.18957 0.45087s0.36889-0.42525 0.05635-0.90173z" fill="#235a91" fill-opacity=".55608" fill-rule="evenodd" filter="url(#filter5343)"/><path transform="matrix(.75119 0 0 .75119 92.191 9.2835)" d="m-46.429 5.328c-0.15355 0.047247-0.18308 0.29529-0.17718 0.43703s0.20671 0.51381 0.44885 0.43113c0.24214-0.082682 0.28348-0.38979 0.18308-0.59649-0.1004-0.20671-0.28348-0.35435-0.45475-0.27167z" fill="#235a91" fill-opacity=".55608" fill-rule="evenodd" filter="url(#filter5347)"/></g></svg>
